<mxfile host="app.diagrams.net" modified="2024-01-18T16:10:35.677Z" agent="Mozilla/5.0 (Windows NT 10.0; Win64; x64) AppleWebKit/537.36 (KHTML, like Gecko) Chrome/118.0.0.0 YaBrowser/23.11.0.0 Safari/537.36" etag="3r90KPh-zP4UD63jCVYn" version="22.1.21" type="device">
  <diagram name="Страница — 1" id="GuEJi1CBfqfuOIqQ9S_g">
    <mxGraphModel dx="1002" dy="543" grid="1" gridSize="10" guides="1" tooltips="1" connect="1" arrows="1" fold="1" page="1" pageScale="1" pageWidth="827" pageHeight="1169" math="0" shadow="0">
      <root>
        <mxCell id="0" />
        <mxCell id="1" parent="0" />
        <mxCell id="QbRdBqRnLxiK7Ol-2P6q-1" value="Начало" style="ellipse;whiteSpace=wrap;html=1;" vertex="1" parent="1">
          <mxGeometry x="160" y="10" width="120" height="60" as="geometry" />
        </mxCell>
        <mxCell id="QbRdBqRnLxiK7Ol-2P6q-2" value="massiv&lt;br&gt;array" style="shape=parallelogram;perimeter=parallelogramPerimeter;whiteSpace=wrap;html=1;fixedSize=1;" vertex="1" parent="1">
          <mxGeometry x="160" y="100" width="120" height="40" as="geometry" />
        </mxCell>
        <mxCell id="QbRdBqRnLxiK7Ol-2P6q-13" style="edgeStyle=orthogonalEdgeStyle;rounded=0;orthogonalLoop=1;jettySize=auto;html=1;exitX=0.5;exitY=1;exitDx=0;exitDy=0;entryX=0.5;entryY=0;entryDx=0;entryDy=0;" edge="1" parent="1" source="QbRdBqRnLxiK7Ol-2P6q-3" target="QbRdBqRnLxiK7Ol-2P6q-12">
          <mxGeometry relative="1" as="geometry" />
        </mxCell>
        <mxCell id="QbRdBqRnLxiK7Ol-2P6q-14" value="Yes" style="edgeLabel;html=1;align=center;verticalAlign=middle;resizable=0;points=[];" vertex="1" connectable="0" parent="QbRdBqRnLxiK7Ol-2P6q-13">
          <mxGeometry x="-0.0933" y="-3" relative="1" as="geometry">
            <mxPoint as="offset" />
          </mxGeometry>
        </mxCell>
        <mxCell id="QbRdBqRnLxiK7Ol-2P6q-19" style="edgeStyle=orthogonalEdgeStyle;rounded=0;orthogonalLoop=1;jettySize=auto;html=1;exitX=1;exitY=0.5;exitDx=0;exitDy=0;entryX=1;entryY=0.5;entryDx=0;entryDy=0;" edge="1" parent="1" source="QbRdBqRnLxiK7Ol-2P6q-3" target="QbRdBqRnLxiK7Ol-2P6q-15">
          <mxGeometry relative="1" as="geometry">
            <Array as="points">
              <mxPoint x="370" y="340" />
              <mxPoint x="370" y="540" />
            </Array>
          </mxGeometry>
        </mxCell>
        <mxCell id="QbRdBqRnLxiK7Ol-2P6q-20" value="No" style="edgeLabel;html=1;align=center;verticalAlign=middle;resizable=0;points=[];" vertex="1" connectable="0" parent="QbRdBqRnLxiK7Ol-2P6q-19">
          <mxGeometry x="-0.9267" y="3" relative="1" as="geometry">
            <mxPoint as="offset" />
          </mxGeometry>
        </mxCell>
        <mxCell id="QbRdBqRnLxiK7Ol-2P6q-3" value="massiv[i].length &amp;lt; 4&amp;nbsp;" style="rhombus;whiteSpace=wrap;html=1;" vertex="1" parent="1">
          <mxGeometry x="130" y="310" width="180" height="60" as="geometry" />
        </mxCell>
        <mxCell id="QbRdBqRnLxiK7Ol-2P6q-4" value="int i = 0;&lt;br&gt;int j = 0;" style="rounded=0;whiteSpace=wrap;html=1;" vertex="1" parent="1">
          <mxGeometry x="160" y="160" width="120" height="40" as="geometry" />
        </mxCell>
        <mxCell id="QbRdBqRnLxiK7Ol-2P6q-23" style="edgeStyle=orthogonalEdgeStyle;rounded=0;orthogonalLoop=1;jettySize=auto;html=1;exitX=1;exitY=0.5;exitDx=0;exitDy=0;entryX=0;entryY=0.5;entryDx=0;entryDy=0;" edge="1" parent="1" source="QbRdBqRnLxiK7Ol-2P6q-6" target="QbRdBqRnLxiK7Ol-2P6q-22">
          <mxGeometry relative="1" as="geometry" />
        </mxCell>
        <mxCell id="QbRdBqRnLxiK7Ol-2P6q-24" value="No" style="edgeLabel;html=1;align=center;verticalAlign=middle;resizable=0;points=[];" vertex="1" connectable="0" parent="QbRdBqRnLxiK7Ol-2P6q-23">
          <mxGeometry x="-0.168" y="5" relative="1" as="geometry">
            <mxPoint as="offset" />
          </mxGeometry>
        </mxCell>
        <mxCell id="QbRdBqRnLxiK7Ol-2P6q-6" value="i &amp;lt; massiv.Length" style="rhombus;whiteSpace=wrap;html=1;" vertex="1" parent="1">
          <mxGeometry x="130" y="220" width="180" height="60" as="geometry" />
        </mxCell>
        <mxCell id="QbRdBqRnLxiK7Ol-2P6q-7" value="" style="endArrow=classic;html=1;rounded=0;exitX=0.5;exitY=1;exitDx=0;exitDy=0;entryX=0.5;entryY=0;entryDx=0;entryDy=0;" edge="1" parent="1" source="QbRdBqRnLxiK7Ol-2P6q-1" target="QbRdBqRnLxiK7Ol-2P6q-2">
          <mxGeometry width="50" height="50" relative="1" as="geometry">
            <mxPoint x="390" y="310" as="sourcePoint" />
            <mxPoint x="440" y="260" as="targetPoint" />
          </mxGeometry>
        </mxCell>
        <mxCell id="QbRdBqRnLxiK7Ol-2P6q-8" value="" style="endArrow=classic;html=1;rounded=0;exitX=0.5;exitY=1;exitDx=0;exitDy=0;entryX=0.5;entryY=0;entryDx=0;entryDy=0;" edge="1" parent="1" source="QbRdBqRnLxiK7Ol-2P6q-2" target="QbRdBqRnLxiK7Ol-2P6q-4">
          <mxGeometry width="50" height="50" relative="1" as="geometry">
            <mxPoint x="230" y="80" as="sourcePoint" />
            <mxPoint x="230" y="110" as="targetPoint" />
          </mxGeometry>
        </mxCell>
        <mxCell id="QbRdBqRnLxiK7Ol-2P6q-9" value="" style="endArrow=classic;html=1;rounded=0;exitX=0.5;exitY=1;exitDx=0;exitDy=0;entryX=0.5;entryY=0;entryDx=0;entryDy=0;" edge="1" parent="1" source="QbRdBqRnLxiK7Ol-2P6q-4" target="QbRdBqRnLxiK7Ol-2P6q-6">
          <mxGeometry width="50" height="50" relative="1" as="geometry">
            <mxPoint x="240" y="90" as="sourcePoint" />
            <mxPoint x="370" y="290" as="targetPoint" />
          </mxGeometry>
        </mxCell>
        <mxCell id="QbRdBqRnLxiK7Ol-2P6q-10" value="" style="endArrow=classic;html=1;rounded=0;exitX=0.5;exitY=1;exitDx=0;exitDy=0;" edge="1" parent="1" source="QbRdBqRnLxiK7Ol-2P6q-6" target="QbRdBqRnLxiK7Ol-2P6q-3">
          <mxGeometry width="50" height="50" relative="1" as="geometry">
            <mxPoint x="390" y="310" as="sourcePoint" />
            <mxPoint x="440" y="260" as="targetPoint" />
          </mxGeometry>
        </mxCell>
        <mxCell id="QbRdBqRnLxiK7Ol-2P6q-11" value="Yes" style="edgeLabel;html=1;align=center;verticalAlign=middle;resizable=0;points=[];" vertex="1" connectable="0" parent="QbRdBqRnLxiK7Ol-2P6q-10">
          <mxGeometry x="-0.04" relative="1" as="geometry">
            <mxPoint as="offset" />
          </mxGeometry>
        </mxCell>
        <mxCell id="QbRdBqRnLxiK7Ol-2P6q-17" style="edgeStyle=orthogonalEdgeStyle;rounded=0;orthogonalLoop=1;jettySize=auto;html=1;exitX=0.5;exitY=1;exitDx=0;exitDy=0;entryX=0.5;entryY=0;entryDx=0;entryDy=0;" edge="1" parent="1" source="QbRdBqRnLxiK7Ol-2P6q-12">
          <mxGeometry relative="1" as="geometry">
            <mxPoint x="220" y="460" as="targetPoint" />
          </mxGeometry>
        </mxCell>
        <mxCell id="QbRdBqRnLxiK7Ol-2P6q-25" value="" style="edgeStyle=orthogonalEdgeStyle;rounded=0;orthogonalLoop=1;jettySize=auto;html=1;" edge="1" parent="1" source="QbRdBqRnLxiK7Ol-2P6q-12" target="QbRdBqRnLxiK7Ol-2P6q-15">
          <mxGeometry relative="1" as="geometry" />
        </mxCell>
        <mxCell id="QbRdBqRnLxiK7Ol-2P6q-12" value="array[j] = massiv[i];&lt;br&gt;j++;" style="rounded=0;whiteSpace=wrap;html=1;" vertex="1" parent="1">
          <mxGeometry x="130" y="420" width="180" height="60" as="geometry" />
        </mxCell>
        <mxCell id="QbRdBqRnLxiK7Ol-2P6q-21" style="edgeStyle=orthogonalEdgeStyle;rounded=0;orthogonalLoop=1;jettySize=auto;html=1;exitX=0;exitY=0.5;exitDx=0;exitDy=0;entryX=0;entryY=0.5;entryDx=0;entryDy=0;" edge="1" parent="1" source="QbRdBqRnLxiK7Ol-2P6q-15" target="QbRdBqRnLxiK7Ol-2P6q-6">
          <mxGeometry relative="1" as="geometry">
            <Array as="points">
              <mxPoint x="70" y="540" />
              <mxPoint x="70" y="250" />
            </Array>
          </mxGeometry>
        </mxCell>
        <mxCell id="QbRdBqRnLxiK7Ol-2P6q-15" value="i ++" style="rounded=0;whiteSpace=wrap;html=1;" vertex="1" parent="1">
          <mxGeometry x="130" y="520" width="180" height="40" as="geometry" />
        </mxCell>
        <mxCell id="QbRdBqRnLxiK7Ol-2P6q-18" style="edgeStyle=orthogonalEdgeStyle;rounded=0;orthogonalLoop=1;jettySize=auto;html=1;exitX=0.5;exitY=1;exitDx=0;exitDy=0;entryX=0.5;entryY=0;entryDx=0;entryDy=0;" edge="1" parent="1" target="QbRdBqRnLxiK7Ol-2P6q-15">
          <mxGeometry relative="1" as="geometry">
            <mxPoint x="220" y="500" as="sourcePoint" />
          </mxGeometry>
        </mxCell>
        <mxCell id="QbRdBqRnLxiK7Ol-2P6q-22" value="print array" style="shape=document;whiteSpace=wrap;html=1;boundedLbl=1;" vertex="1" parent="1">
          <mxGeometry x="360" y="225" width="120" height="50" as="geometry" />
        </mxCell>
      </root>
    </mxGraphModel>
  </diagram>
</mxfile>
